<?xml version="1.0" encoding="UTF-8"?>
<svg width="50px" height="44px" viewBox="0 0 50 44" version="1.1" xmlns="http://www.w3.org/2000/svg" xmlns:xlink="http://www.w3.org/1999/xlink">
    <!-- Generator: Sketch 61.2 (89653) - https://sketch.com -->
    <title>arrow-back-outline</title>
    <desc>Created with Sketch.</desc>
    <g id="Page-1" stroke="none" stroke-width="1" fill="none" fill-rule="evenodd">
        <g id="Desktop-Full-HD" transform="translate(-174.000000, -5033.000000)" fill="#242424" fill-rule="nonzero">
            <g id="Group-25" transform="translate(0.000000, 4184.000000)">
                <g id="Group-24" transform="translate(174.000000, 410.000000)">
                    <g id="arrow-back-outline" transform="translate(0.000000, 439.000000)">
                        <path d="M46.875,18.875 L9.8125,18.875 L21.15625,5.25 C22.2608195,3.92106482 22.0789352,1.9483195 20.75,0.84375 C19.4210648,-0.2608195 17.4483195,-0.0789351793 16.34375,1.25 L0.71875,20 C0.613627124,20.1491385 0.519623211,20.3058117 0.4375,20.46875 C0.4375,20.625 0.4375,20.71875 0.21875,20.875 C0.0771046364,21.2333084 0.00294100404,21.6147213 0,22 C0.00294100404,22.3852787 0.0771046364,22.7666916 0.21875,23.125 C0.21875,23.28125 0.21875,23.375 0.4375,23.53125 C0.519623211,23.6941883 0.613627124,23.8508615 0.71875,24 L16.34375,42.75 C16.938614,43.4641878 17.8205243,43.8765095 18.75,43.875006 C19.480163,43.8764266 20.1877748,43.6221286 20.75,43.15625 C21.3890848,42.626412 21.791087,41.8640601 21.8673029,41.0374109 C21.9435188,40.2107617 21.6876841,39.3877582 21.15625,38.75 L9.8125,25.125 L46.875,25.125 C48.6008898,25.125 50,23.7258898 50,22 C50,20.2741102 48.6008898,18.875 46.875,18.875 Z" id="Path"></path>
                    </g>
                </g>
            </g>
        </g>
    </g>
</svg>