<?xml version="1.0" encoding="UTF-8"?>
<svg width="50px" height="44px" viewBox="0 0 50 44" version="1.1" xmlns="http://www.w3.org/2000/svg" xmlns:xlink="http://www.w3.org/1999/xlink">
    <!-- Generator: Sketch 61.2 (89653) - https://sketch.com -->
    <title>arrow-forward-outline</title>
    <desc>Created with Sketch.</desc>
    <g id="Page-1" stroke="none" stroke-width="1" fill="none" fill-rule="evenodd">
        <g id="Desktop-Full-HD" transform="translate(-1691.000000, -5030.000000)" fill="#242424" fill-rule="nonzero">
            <g id="Group-25" transform="translate(0.000000, 4184.000000)">
                <g id="Group-24" transform="translate(174.000000, 410.000000)">
                    <g id="arrow-forward-outline" transform="translate(1517.000000, 436.000000)">
                        <path d="M3.125,24.999994 L40.1875,24.999994 L28.84375,38.625 C27.7391805,39.9539352 27.9210648,41.9266805 29.25,43.03125 C30.5789352,44.1358195 32.5516805,43.9539352 33.65625,42.625 L49.28125,23.875 C49.3863729,23.7258615 49.4803768,23.5691883 49.5625,23.40625 C49.5625,23.25 49.71875,23.15625 49.78125,22.999994 C49.9228954,22.6416916 49.997059,22.2602787 50,21.875 C49.997059,21.4897213 49.9228954,21.1083084 49.78125,20.75 C49.78125,20.59375 49.625,20.499994 49.5625,20.34375 C49.4803768,20.1808117 49.3863729,20.0241385 49.28125,19.875 L33.65625,1.125 C33.061386,0.410812201 32.1794757,-0.00150946422 31.25,-5.96986959e-06 C30.519837,-0.00142660317 29.8122252,0.252871395 29.25,0.71875 C28.6109152,1.24858802 28.208913,2.01093994 28.1326971,2.8375891 C28.0564812,3.66423825 28.3123159,4.48724181 28.84375,5.125 L40.1875,18.75 L3.125,18.75 C1.39911016,18.75 0,20.1491102 0,21.875 C0,23.6008898 1.39911016,24.999994 3.125,24.999994 Z" id="Path"></path>
                    </g>
                </g>
            </g>
        </g>
    </g>
</svg>